<?xml version="1.0" encoding="utf-8"?>
<!-- Generator: Adobe Illustrator 28.2.0, SVG Export Plug-In . SVG Version: 6.00 Build 0)  -->
<svg version="1.1" xmlns="http://www.w3.org/2000/svg" xmlns:xlink="http://www.w3.org/1999/xlink" x="0px" y="0px"
	 viewBox="0 0 113.3 120.5" style="enable-background:new 0 0 113.3 120.5;" xml:space="preserve">
<style type="text/css">
	.st0{fill-rule:evenodd;clip-rule:evenodd;}
	.st1{fill:none;stroke:#000000;stroke-width:3;stroke-miterlimit:10;}
	.st2{display:none;}
	.st3{display:inline;fill:none;stroke:#000000;stroke-width:0.25;stroke-miterlimit:10;}
	.st4{fill:none;stroke:#000000;stroke-miterlimit:10;}
</style>
<g id="Layer_1">
	<g>
		<path d="M38.5,343.7l-2.4,13.4c0,0.2-0.1,0.4-0.2,0.5c-0.8,1.1-1.4,2-1.5,2.8c-0.1,0.6,0,1,0.4,1.4l9.2,9.2
			c0.6,0.6,1.3,0.9,2.1,1.1c0.9,0.2,1.9,0.1,3.1-0.3c0,0,0,0,0.1,0c0.5-0.1,1-0.3,1.6-0.4c2.5-0.6,4.6-1.1,6.6-2.9l2.6-2.7
			c0,0,0.1-0.1,0.1-0.1c0,0,0.3-0.3,0.6-0.6c1.8-1.7,3.9-3.8,2.6-5.7l-1-1c-0.5,0.5-1,1-1.5,1.4c-0.5,0.4-0.9,0.8-1.3,1.2
			c-0.4,0.4-1.1,0.4-1.5,0c-0.4-0.4-0.4-1.1,0-1.5c0.4-0.4,0.9-0.8,1.4-1.3c1.7-1.5,3.7-3.3,2.7-4.8l-1-1c-0.1-0.1-0.1-0.1-0.2-0.2
			c-0.6,0.6-1.2,1.2-1.9,1.7c-0.5,0.4-0.9,0.8-1.3,1.2c-0.4,0.4-1.1,0.4-1.5,0c-0.4-0.4-0.4-1.1,0-1.5c0.4-0.4,0.9-0.8,1.4-1.3
			c1.7-1.5,3.7-3.3,2.7-4.8l-1-1c-0.1-0.1-0.1-0.2-0.2-0.2l-3,3c-0.4,0.4-1.1,0.4-1.5,0c-0.4-0.4-0.4-1.1,0-1.5l5.6-5.6
			c1.3-1.3,1.6-2.7,1.3-3.8c-0.1-0.4-0.3-0.7-0.6-1c-0.1-0.1-0.3-0.3-0.5-0.4h0c-0.1,0-0.1,0-0.2-0.1c-0.1,0-0.2-0.1-0.3-0.1
			c-0.9-0.3-2.1-0.1-3.4,0.9c0,0,0,0-0.1,0c-0.1,0.1-0.3,0.2-0.4,0.4l-11.6,11.7c-0.4,0.4-1.1,0.4-1.5,0c-0.4-0.4-0.4-1-0.1-1.4
			L38.5,343.7L38.5,343.7z M45.9,344.8l0.4-0.4l7.7-7.7c-0.8-0.4-1.5-0.9-2.2-1.5c-2.9-2.9-2.9-7.6,0-10.6s7.6-2.9,10.6,0
			c2.9,2.9,2.9,7.6,0,10.6c0,0-0.1,0.1-0.1,0.1c0.1,0.1,0.1,0.1,0.2,0.2c0.2,0.2,0.4,0.5,0.6,0.8l9.5-9.5c-1.5-1.5-1.5-3.8,0-5.3
			l-7.1-7.1c-1.5,1.5-3.8,1.5-5.3,0l-19.7,19.7c1.5,1.5,1.5,3.8,0,5.3L45.9,344.8L45.9,344.8z M62.6,342.3c-0.3,0.4-0.6,0.7-0.9,1.1
			l-1.1,1.1l0,0c0.1,0,0.2,0.1,0.2,0.2l1.1,1.1c0.1,0.1,0.1,0.1,0.2,0.2c1.2,1.6,1,3.1,0.2,4.4c0.2,0.1,0.3,0.1,0.4,0.3l1.1,1.1
			c0.1,0.1,0.1,0.1,0.2,0.2c1.3,1.8,1,3.3,0,4.7c0,0,0.1,0.1,0.1,0.1l1.1,1.1c0.1,0.1,0.1,0.1,0.2,0.2c2.5,3.4-0.5,6.2-2.8,8.6
			l-0.6,0.6l-2.6,2.8l-0.1,0.1c-2.4,2.2-4.8,2.8-7.6,3.5c-0.5,0.1-0.9,0.2-1.6,0.4c0,0,0,0,0,0c-1.5,0.4-2.9,0.5-4.1,0.3
			c-1.2-0.2-2.3-0.8-3.2-1.7l-9.2-9.2c-0.9-0.9-1.2-2-1-3.3c0.2-1.1,0.8-2.2,1.8-3.5l2.5-13.9v-0.1c0-0.2,0.1-0.4,0.1-0.6l-4.7-4.7
			l31.3-31.3l18,18L62.6,342.3L62.6,342.3z"/>
	</g>
	<g>
		<path class="st0" d="M-83.7,218.2l3.1-0.1l2.6-0.1c-3-9.2-2-17.7,5.2-24.8c1.2,3.9,4,7.2,8.6,9.6c2.2,1.7,4.4,3.7,6.5,5.9
			c0.4-1.5-1-3.4-2.8-5.3c1.6,0.8,3,1.9,4.1,4c1.2,2.4,1.2,4.5,0.8,7.1c-0.2,1.2-0.5,2.4-0.9,3.4h4.3c4.5-9.6,1.6-23.9-7.5-29.9
			c-2.8-1.9-4.8-1.8-8.2-1.8c-3.8,0-5.7,0.1-9,2.3c-4.8,3.2-7.7,8.6-9,16.2C-86.2,208.6-86.3,215.2-83.7,218.2L-83.7,218.2z
			 M-51.4,233c-1.7-3.5-4-6.5-6.5-9.3c4.8,1.9,9.8,3.7,13.5,6c2.3,1.5,3.5,2.6,4.5,4.3c2.3,4.4,2,9.2,3.2,13.8h-31.3h-31.3
			c1.2-4.6,0.9-9.5,3.2-13.8c0.9-1.8,2.1-2.9,4.5-4.3c3.7-2.3,8.6-4.2,13.5-6c-2.6,2.8-4.8,5.8-6.5,9.3l5-0.1l11.6,10.1l11.6-10.1
			L-51.4,233L-51.4,233z M-72,235.7l2.3-8l-1.1-1.2c-0.5-0.7-0.6-1.4-0.3-1.9c0.6-1.2,1.9-1,3.1-1c1.2,0,2.8-0.2,3.2,1.3
			c0.1,0.5,0,1.1-0.4,1.6l-1.1,1.2l2.3,8l-3.9,3.1L-72,235.7L-72,235.7z"/>
	</g>
	<path d="M191.4,249.5h-31.4c-0.8,0-1.5-0.3-2-0.8c-0.5-0.5-0.8-1.2-0.8-2v-59c0-0.8,0.3-1.5,0.8-2c0.5-0.5,1.2-0.8,2-0.8h45
		c0.8,0,1.5,0.3,2,0.8c0.5,0.5,0.8,1.2,0.8,2v45.1c0,0.1,0,0.2,0,0.3c0,0.4-0.2,0.7-0.4,1l-14.8,15
		C192.4,249.3,191.8,249.5,191.4,249.5z M169.3,199.3l-1.1,0.3c-1.5,0-2.5-0.4-3.1-1.2c-0.3-0.4-0.5-0.8-0.6-1.3
		c-0.1-0.5-0.2-1.1-0.2-1.7c0-1.5,0.3-2.7,0.9-3.4c0.6-0.7,1.6-1.1,3.1-1.1s2.5,0.4,3.1,1.1c0.6,0.7,0.9,1.8,0.9,3.4
		c0,1.1-0.2,2.1-0.7,2.8l1,0.6l-0.7,1.6l-2.6-0.5C169.3,199.8,169.3,199.3,169.3,199.3z M167.3,197.5h1.1c0.4,0,0.6,0,0.8-0.1
		c0.2-0.1,0.2-0.3,0.2-0.6v-3.5h-1.1c-0.4,0-0.6,0-0.8,0.1c-0.2,0.1-0.3,0.3-0.3,0.6C167.3,194,167.3,197.5,167.3,197.5z
		 M176.1,192.9v5h0.4c0.3,0,0.6,0,0.7-0.1c0.1-0.1,0.2-0.2,0.2-0.5v-4.4h2.7v6.8h-1.3l-0.8-0.8c-0.5,0.6-1.3,1-2.3,1
		c-0.8,0-1.4-0.2-1.8-0.5c-0.4-0.3-0.6-0.9-0.6-1.7v-4.7H176.1L176.1,192.9z M182.1,199c-0.6-0.6-0.8-1.5-0.8-2.7s0.3-2.1,0.8-2.7
		c0.6-0.6,1.5-0.9,2.7-0.9c1.3,0,2.2,0.3,2.7,0.9c0.6,0.6,0.8,1.5,0.8,2.7s-0.3,2.1-0.8,2.7c-0.6,0.6-1.5,0.9-2.7,0.9
		C183.5,199.8,182.6,199.5,182.1,199z M184.1,195.2v2.6h0.4c0.3,0,0.6,0,0.7-0.1c0.1-0.1,0.2-0.2,0.2-0.5v-2.6h-0.4
		c-0.3,0-0.6,0-0.7,0.1C184.2,194.8,184.1,195,184.1,195.2z M189.1,194.6v-1.7h0.7v-1.1l2.7-0.7v1.8h0.9v1.7h-0.9v3.1
		c0.2,0,0.5,0.1,0.8,0.1l-0.1,2c-1.2,0-2-0.1-2.4-0.2c-0.5-0.2-0.7-0.4-0.9-0.6c-0.1-0.2-0.1-0.4-0.1-0.6v-3.7H189.1L189.1,194.6z
		 M197,197.2v0.6c1.1,0.1,2.3,0,3.3-0.4l0.3,2c-1,0.3-2,0.4-3,0.4c-1.3,0-2.2-0.3-2.7-0.9c-0.6-0.6-0.8-1.5-0.8-2.7s0.3-2.1,0.8-2.7
		c0.6-0.6,1.5-0.9,2.7-0.9c1.3,0,2.1,0.2,2.6,0.5c0.5,0.3,0.7,1,0.7,1.9c0,0.8-0.3,1.2-0.9,1.6C199.6,197,198.5,197.2,197,197.2z
		 M197,195.2v0.6h0.6c0.3,0,0.6,0,0.7-0.1c0.1-0.1,0.2-0.2,0.2-0.5v-0.9h-0.6c-0.3,0-0.6,0-0.7,0.1C197.1,194.5,197,195,197,195.2z
		 M171.4,233.8c1,0,2,0.4,2.7,1.1c0.7,0.7,1.1,1.7,1.1,2.7c0,1-0.4,2-1.1,2.7l0,0c-0.7,0.7-1.6,1.1-2.6,1.1c-1,0-2-0.4-2.7-1.1
		c-0.7-0.7-1.1-1.6-1.1-2.7s0.4-2,1.1-2.7C169.5,234.2,170.4,233.8,171.4,233.8L171.4,233.8z M171.4,230.7c1.9,0,3.6,0.8,4.9,2l0,0
		c1.2,1.2,2,3,2,4.9c0,1.9-0.8,3.6-2,4.9l0,0c-1.2,1.2-2.9,2-4.8,2c-1.9,0-3.6-0.8-4.9-2s-2-3-2-4.9c0-1.9,0.8-3.6,2-4.9
		C167.8,231.5,169.5,230.7,171.4,230.7L171.4,230.7z M175.3,233.7c-1-1-2.4-1.6-3.9-1.6c-1.5,0-2.9,0.6-3.9,1.6
		c-1,1-1.6,2.4-1.6,3.9c0,1.5,0.6,2.9,1.6,3.9c1,1,2.4,1.6,3.9,1.6c1.4,0,2.8-0.6,3.9-1.6l0,0c1-1,1.6-2.4,1.6-3.9
		C176.9,236.1,176.3,234.7,175.3,233.7z M169.6,208.9c-0.5,0-0.9-0.4-0.9-0.9c0-0.5,0.4-0.9,0.9-0.9h18.5c0.5,0,0.9,0.4,0.9,0.9
		c0,0.5-0.4,0.9-0.9,0.9C188.1,208.9,169.6,208.9,169.6,208.9z M169.6,223.1c-0.5,0-0.9-0.4-0.9-0.9c0-0.5,0.4-0.9,0.9-0.9h25.5
		c0.5,0,0.9,0.4,0.9,0.9c0,0.5-0.4,0.9-0.9,0.9C195.1,223.1,169.6,223.1,169.6,223.1z M169.6,217.4c-0.5,0-0.9-0.4-0.9-0.9
		c0-0.5,0.4-0.9,0.9-0.9h18.5c0.5,0,0.9,0.4,0.9,0.9c0,0.5-0.4,0.9-0.9,0.9C188.1,217.4,169.6,217.4,169.6,217.4z M198.9,213h-32.8
		v12.6h32.8V213L198.9,213z M166.2,211.2h32.8v-6.6h-32.8V211.2z M165.3,202.7h34.6c0.5,0,0.9,0.4,0.9,0.9v22.9
		c0,0.5-0.4,0.9-0.9,0.9h-34.6c-0.5,0-0.9-0.4-0.9-0.9v-22.9C164.3,203.1,164.7,202.7,165.3,202.7L165.3,202.7z M190.4,246.9v-11.2
		c0-1.1,0.4-2.1,1.1-2.8c0.7-0.7,1.7-1.1,2.8-1.1h11v-44.1c0-0.1,0-0.2-0.1-0.2c0,0-0.1-0.1-0.2-0.1H160c-0.1,0-0.2,0-0.2,0.1
		c0,0-0.1,0.1-0.1,0.2v59c0,0.1,0,0.2,0.1,0.2c0,0,0.1,0.1,0.2,0.1L190.4,246.9L190.4,246.9L190.4,246.9z M192.9,235.7v9.4
		l10.6-10.7h-9.3c-0.4,0-0.7,0.2-0.9,0.4C193.1,235,192.9,235.3,192.9,235.7z"/>
	<path class="st0" d="M173.2,341.7c-0.9-0.2-1.5-1-1.4-2c0.1-0.7,0.7-1.2,1.4-1.4h18.4c0.9,0.2,1.5,1,1.4,2
		c-0.1,0.7-0.7,1.2-1.4,1.4H173.2z M207.8,355.1l-0.7,2.9h-4.8c0.6,2,2,3,4.1,3c2.3,0,4.6-0.8,6.4-2.2v5.9c-1.8,1.2-3.9,1.8-6,1.7
		c-3.8,0-6.6-0.9-8.4-2.6c-1.7-1.5-2.8-3.5-3.3-5.8h-2.9l0.8-2.9h1.8c0-0.3,0-0.6,0-0.8c0-0.3,0-0.6,0-0.9h-2.1l0.8-2.9h1.8
		c1.4-5.4,5.2-8.2,11.3-8.2c2.1,0,4.3,0.6,6.1,1.6l-1.4,5.8c-1.4-1.3-2.9-2-4.5-2c-2.1,0-3.4,0.9-4.2,2.8h5.7l-0.7,2.9h-5.6
		c0,0.3,0,0.6,0,0.9v0.8L207.8,355.1L207.8,355.1L207.8,355.1z M189.3,366c0.9,0,1.7,0.7,1.7,1.7c0,0.9-0.7,1.7-1.7,1.7h-33.1
		c-2.1,0-3.9-1.7-3.9-3.9v-50.9c0-2.1,1.7-3.9,3.9-3.9c0,0,0,0,0,0h47.5c2.1,0,3.9,1.7,3.9,3.9v19.2c0,0.9-0.7,1.7-1.6,1.8
		s-1.7-0.7-1.8-1.6c0-0.1,0-0.1,0-0.2v-19.2c0-0.3-0.2-0.5-0.5-0.5h-47.5c-0.1,0-0.3,0.1-0.4,0.2c-0.1,0.1-0.2,0.2-0.2,0.4v50.9
		c0,0.1,0.1,0.3,0.2,0.4c0.1,0.1,0.2,0.2,0.4,0.2L189.3,366z M173.2,353.8c-0.9-0.2-1.5-1.1-1.4-2c0.1-0.7,0.7-1.2,1.4-1.4h14.5
		c0.9,0.2,1.5,1.1,1.4,2c-0.1,0.7-0.7,1.2-1.4,1.4H173.2z M173.2,329.5c-0.8-0.1-1.5-0.8-1.4-1.7c-0.1-0.8,0.6-1.6,1.4-1.7h18.4
		c0.8,0.1,1.5,0.8,1.4,1.7c0.1,0.8-0.6,1.6-1.4,1.7H173.2z M165.3,349.9c1.1,0,2,0.9,2,2c0,1.1-0.9,2-2,2s-2-0.9-2-2
		C163.3,350.8,164.2,349.9,165.3,349.9z M165.3,337.9c1.1,0,2,0.9,2,2c0,1.1-0.9,2-2,2s-2-0.9-2-2
		C163.3,338.8,164.2,337.9,165.3,337.9z M165.3,325.9c1.1,0,2,0.9,2,2c0,1.1-0.9,2-2,2s-2-0.9-2-2
		C163.3,326.8,164.2,325.9,165.3,325.9z"/>
	<g>
		<path class="st0" d="M23.8,191.1h65.6c2.5,0,4.6,2.1,4.6,4.6v42.9c0,2.5-2.1,4.6-4.6,4.6H23.8c-2.5,0-4.6-2.1-4.6-4.6v-42.9
			C19.2,193.2,21.3,191.1,23.8,191.1L23.8,191.1z M61.7,229.6H79v2.4H61.7V229.6L61.7,229.6z M61.7,223.4h23.8v2.4H61.7V223.4
			L61.7,223.4z M75.2,212.4h3.4c0.2,0,0.3,0.1,0.3,0.3v6.7c0,0.2-0.1,0.3-0.3,0.3h-3.4c-0.2,0-0.3-0.1-0.3-0.3v-6.7
			C74.9,212.6,75,212.4,75.2,212.4L75.2,212.4L75.2,212.4z M62.1,208.3h3.4c0.2,0,0.3,0.1,0.3,0.3v10.8c0,0.2-0.1,0.3-0.3,0.3h-3.4
			c-0.2,0-0.3-0.1-0.3-0.3v-10.8C61.7,208.4,61.9,208.3,62.1,208.3L62.1,208.3L62.1,208.3L62.1,208.3z M68.6,206H72
			c0.2,0,0.3,0.1,0.3,0.3v13.1c0,0.2-0.1,0.3-0.3,0.3h-3.4c-0.2,0-0.3-0.1-0.3-0.3v-13.1C68.3,206.1,68.4,206,68.6,206L68.6,206
			L68.6,206z M43.1,220.4l10.3,0.2c0,3.7-1.8,7.1-4.9,9.2L43.1,220.4L43.1,220.4L43.1,220.4z M42.1,218.6l-0.1-12v-0.8l0.8,0.1l0,0
			l0,0c1,0.1,1.9,0.2,2.9,0.5s1.8,0.6,2.6,1c4.2,2.2,7.1,6.6,7.4,11.5l0.1,0.8h-0.8l-12-0.4h-0.7L42.1,218.6L42.1,218.6L42.1,218.6z
			 M43.4,207.3l0.1,10.6l10.5,0.3c-0.4-4.1-3-7.7-6.5-9.6c-0.7-0.4-1.5-0.7-2.3-0.9C44.6,207.6,44,207.5,43.4,207.3L43.4,207.3
			L43.4,207.3z M41,219.8l5.9,10.2c-1.8,1-3.8,1.6-5.9,1.6c-6.5,0-11.8-5.3-11.8-11.8c0-6.3,5-11.5,11.3-11.8L41,219.8L41,219.8
			L41,219.8z M89.5,199.7H23.6v39.1h65.9V199.7L89.5,199.7L89.5,199.7z"/>
	</g>
	<path class="st1" d="M220.5,261.1h-75.8c-3.4,0-6.1-2.7-6.1-6.1v-75.8c0-3.4,2.7-6.1,6.1-6.1h75.8c3.4,0,6.1,2.7,6.1,6.1V255
		C226.6,258.4,223.8,261.1,220.5,261.1z"/>
	<path class="st1" d="M220.5,384h-75.8c-3.4,0-6.1-2.7-6.1-6.1v-75.8c0-3.4,2.7-6.1,6.1-6.1h75.8c3.4,0,6.1,2.7,6.1,6.1v75.8
		C226.6,381.3,223.8,384,220.5,384z"/>
	<path class="st1" d="M-30.2,261.1H-106c-3.4,0-6.1-2.7-6.1-6.1v-75.8c0-3.4,2.7-6.1,6.1-6.1h75.8c3.4,0,6.1,2.7,6.1,6.1V255
		C-24,258.4-26.8,261.1-30.2,261.1z"/>
	<path class="st1" d="M94.5,261.1H18.7c-3.4,0-6.1-2.7-6.1-6.1v-75.8c0-3.4,2.7-6.1,6.1-6.1h75.8c3.4,0,6.1,2.7,6.1,6.1V255
		C100.6,258.4,97.8,261.1,94.5,261.1z"/>
	<path class="st1" d="M94.5,384H18.7c-3.4,0-6.1-2.7-6.1-6.1v-75.8c0-3.4,2.7-6.1,6.1-6.1h75.8c3.4,0,6.1,2.7,6.1,6.1v75.8
		C100.6,381.3,97.8,384,94.5,384z"/>
	<path class="st0" d="M-102,341.1h10c0.9,0,1.7,0.8,1.7,1.7v20.5c0,0.9-0.8,1.7-1.7,1.7h-10c-0.9,0-1.7-0.8-1.7-1.7v-20.5
		C-103.7,341.9-102.9,341.1-102,341.1z M-88,363.1v-20h10.7c3.8,0.7,7.6,2.8,11.4,5.2h7c3.2,0.2,4.8,3.4,1.7,5.5
		c-2.5,1.8-5.7,1.7-9,1.4c-2.3-0.1-2.4,3,0,3c0.8,0.1,1.7-0.1,2.5-0.1c4.1,0,7.5-0.8,9.6-4.1l1.1-2.5l10.4-5.2
		c5.2-1.7,8.9,3.7,5.1,7.5c-7.3,5.3-15,9.9-23.2,13.6c-5.7,3.5-11.5,3.4-17.2,0L-88,363.1L-88,363.1z M-69.5,314.2
		c-0.1-0.1-0.1-0.1-0.2-0.1c-0.1,0-0.1,0-0.2,0c-0.2,0-0.3,0.1-0.4,0.2l-1.4,1.7c-0.3,0.3-0.7,0.4-1,0.2c-0.2-0.1-0.4-0.2-0.6-0.3
		s-0.4-0.2-0.6-0.2s-0.4-0.1-0.7-0.2c-0.2-0.1-0.5-0.1-0.7-0.2c-0.4-0.1-0.6-0.4-0.6-0.8l-0.2-2.3c0-0.1,0-0.2-0.1-0.2
		c0-0.1-0.1-0.1-0.1-0.2c0,0-0.1-0.1-0.2-0.1c-0.1,0-0.2,0-0.2,0l-2.9,0.3c-0.1,0-0.2,0-0.2,0.1c-0.1,0-0.1,0.1-0.2,0.2
		c0,0.1-0.1,0.1-0.1,0.2l0,0c0,0.1,0,0.1,0,0.2l0.2,2.1c0,0.4-0.2,0.8-0.6,0.9c-0.2,0.1-0.4,0.1-0.6,0.2c-0.2,0.1-0.4,0.2-0.6,0.3h0
		c-0.2,0.1-0.4,0.2-0.6,0.3h-0.1c-0.2,0.1-0.4,0.2-0.6,0.3c-0.3,0.2-0.7,0.2-1,0l-1.9-1.5c-0.1,0-0.1-0.1-0.2-0.1
		c-0.1,0-0.1,0-0.2,0c-0.1,0-0.2,0-0.2,0.1h0c-0.1,0-0.1,0.1-0.1,0.1l-1.8,2.2c-0.1,0.1-0.1,0.1-0.1,0.2c0,0.1,0,0.1,0,0.2v0
		c0,0.1,0,0.1,0.1,0.2v0c0,0.1,0.1,0.1,0.1,0.1l1.7,1.4c0.3,0.3,0.4,0.7,0.2,1.1c-0.1,0.2-0.2,0.4-0.3,0.6c-0.1,0.2-0.2,0.4-0.2,0.6
		c-0.1,0.2-0.1,0.4-0.2,0.7c-0.1,0.2-0.1,0.5-0.2,0.7c-0.1,0.4-0.4,0.7-0.8,0.7l-2.3,0.2c-0.1,0-0.2,0-0.2,0.1
		c-0.1,0-0.1,0.1-0.2,0.1c0,0.1-0.1,0.1-0.1,0.2c0,0.1,0,0.1,0,0.2l0.3,2.9c0,0.1,0,0.2,0.1,0.2c0,0.1,0.1,0.1,0.1,0.2
		c0.1,0,0.1,0.1,0.2,0.1c0.1,0,0.1,0,0.2,0l2.1-0.2c0.4,0,0.8,0.2,0.9,0.6c0.1,0.2,0.1,0.4,0.2,0.6c0.1,0.2,0.2,0.4,0.3,0.6l0,0.1
		c0.1,0.2,0.2,0.4,0.3,0.6l0.4,0.6c0.2,0.3,0.2,0.7-0.1,1l-1.5,1.9c0,0.1-0.1,0.1-0.1,0.2c0,0.1,0,0.1,0,0.2c0,0.1,0,0.2,0.1,0.2
		c0,0.1,0.1,0.1,0.1,0.2c0.8,0.6,1.5,1.3,2.3,1.9c0.1,0,0.1,0.1,0.2,0.1c0.1,0,0.1,0,0.2,0l0,0c0.1,0,0.2,0,0.2-0.1h0
		c0.1,0,0.1-0.1,0.1-0.1l1.4-1.7c0.3-0.3,0.7-0.4,1.1-0.2c0.2,0.1,0.4,0.2,0.6,0.3c0.2,0.1,0.4,0.2,0.6,0.2c0.2,0.1,0.4,0.1,0.7,0.2
		s0.5,0.1,0.7,0.2c0.4,0.1,0.6,0.4,0.7,0.8l0.2,2.2c0,0.1,0,0.2,0.1,0.2c0,0.1,0.1,0.1,0.1,0.2c0.1,0,0.1,0.1,0.2,0.1
		c0.1,0,0.2,0,0.2,0l2.9-0.3c0.1,0,0.2,0,0.2-0.1l0,0c0.1,0,0.1-0.1,0.2-0.1c0-0.1,0.1-0.1,0.1-0.2c0-0.1,0-0.1,0-0.2l-0.2-2.2
		c0-0.4,0.2-0.7,0.6-0.9c0.2-0.1,0.4-0.2,0.6-0.2h0.1c0.2-0.1,0.4-0.2,0.6-0.3h0c0.2-0.1,0.4-0.2,0.6-0.3l0.6-0.4
		c0.3-0.2,0.7-0.2,1,0.1l1.9,1.5c0.1,0,0.1,0.1,0.2,0.1l0,0c0.1,0,0.1,0,0.2,0c0.1,0,0.2,0,0.2-0.1c0.1,0,0.1-0.1,0.2-0.1
		c0.6-0.8,1.3-1.5,1.9-2.3c0,0,0.1-0.1,0.1-0.2c0-0.1,0-0.1,0-0.2l0,0c0-0.1,0-0.2-0.1-0.2c0-0.1-0.1-0.1-0.1-0.2l-1.7-1.3
		c-0.3-0.3-0.4-0.7-0.2-1.1c0.1-0.2,0.2-0.4,0.3-0.6c0.1-0.2,0.2-0.4,0.2-0.6c0.1-0.2,0.1-0.4,0.2-0.7c0.1-0.2,0.1-0.5,0.2-0.7
		c0.1-0.4,0.4-0.7,0.8-0.7l2.3-0.2c0.1,0,0.2,0,0.2-0.1c0.1,0,0.1-0.1,0.2-0.1c0-0.1,0.1-0.1,0.1-0.2l0,0c0-0.1,0-0.1,0-0.2
		l-0.3-2.9c0-0.1,0-0.2-0.1-0.2v0c0-0.1-0.1-0.1-0.1-0.2c-0.1,0-0.1-0.1-0.2-0.1l0,0c-0.1,0-0.1,0-0.2,0l-2.2,0.2
		c-0.4,0-0.7-0.2-0.9-0.6c-0.1-0.2-0.1-0.4-0.2-0.6c-0.1-0.2-0.2-0.5-0.3-0.6v0c-0.1-0.2-0.2-0.4-0.3-0.6c-0.1-0.2-0.2-0.4-0.4-0.6
		c-0.2-0.3-0.2-0.7,0-1l1.5-1.9c0-0.1,0.1-0.1,0.1-0.2c0-0.1,0-0.1,0-0.2c0-0.1,0-0.2-0.1-0.2v0c0,0-0.1-0.1-0.1-0.1l-2.1-1.7
		C-69.3,314.3-69.4,314.3-69.5,314.2z M-46.7,327.8c-0.2-0.1-0.4-0.2-0.6-0.2c-0.2,0-0.4,0.1-0.6,0.3l-0.8,1
		c-0.3-0.1-0.5-0.3-0.8-0.4c-0.3-0.1-0.6-0.2-0.9-0.2l-0.1-1.4c0-0.2-0.1-0.4-0.3-0.6c-0.2-0.1-0.4-0.2-0.6-0.2l-1.8,0.2
		c-0.2,0-0.4,0.1-0.6,0.3c-0.2,0.2-0.2,0.4-0.2,0.6l0.1,1.3c-0.3,0.1-0.6,0.2-0.8,0.4c-0.3,0.1-0.5,0.3-0.8,0.5l-1.1-0.9
		c-0.2-0.2-0.4-0.2-0.6-0.2c-0.2,0-0.4,0.1-0.6,0.3l-1.1,1.4c-0.3,0.4-0.3,0.9,0.1,1.2c0,0,0,0,0,0l1,0.8c-0.1,0.3-0.3,0.5-0.3,0.8
		c-0.1,0.3-0.2,0.6-0.3,0.9l-1.4,0.1c-0.2,0-0.4,0.1-0.6,0.3c-0.1,0.2-0.2,0.4-0.1,0.6l0.2,1.8c0,0.2,0.1,0.4,0.3,0.6
		c0.2,0.2,0.4,0.2,0.6,0.2l1.3-0.1c0.1,0.3,0.2,0.6,0.3,0.8c0.1,0.3,0.3,0.5,0.5,0.8l-0.9,1.1c-0.2,0.2-0.2,0.4-0.2,0.6
		c0,0.2,0.1,0.4,0.3,0.6l1.4,1.2c0.2,0.1,0.4,0.2,0.6,0.2c0.2,0,0.4-0.1,0.6-0.3l0.8-1c0.3,0.1,0.5,0.3,0.8,0.4
		c0.3,0.1,0.6,0.2,0.9,0.2l0.1,1.4c0,0.2,0.1,0.4,0.3,0.6c0.2,0.1,0.4,0.2,0.6,0.2l1.8-0.2c0.2,0,0.4-0.1,0.6-0.3
		c0.2-0.2,0.2-0.4,0.2-0.6l-0.1-1.3c0.3-0.1,0.6-0.2,0.8-0.4c0.3-0.1,0.5-0.3,0.8-0.4l1.1,0.9c0.2,0.2,0.4,0.2,0.6,0.2
		c0.2,0,0.4-0.1,0.6-0.3l1.1-1.4c0.1-0.2,0.2-0.4,0.2-0.6c0-0.2-0.1-0.4-0.3-0.6l-1-0.8c0.2-0.3,0.3-0.5,0.4-0.8
		c0.1-0.3,0.2-0.6,0.2-0.9l1.4-0.1c0.2,0,0.4-0.1,0.6-0.3c0.1-0.2,0.2-0.4,0.2-0.6l-0.2-1.8c0-0.2-0.1-0.4-0.3-0.6
		c-0.2-0.2-0.4-0.2-0.6-0.2l-1.3,0.1c-0.1-0.3-0.2-0.6-0.4-0.8c-0.1-0.3-0.3-0.5-0.5-0.8l0.9-1.1c0.1-0.2,0.2-0.4,0.2-0.6
		c0-0.2-0.1-0.4-0.3-0.6L-46.7,327.8L-46.7,327.8L-46.7,327.8z M-52.2,331.5c0.5,0,0.9,0,1.4,0.1c0.4,0.1,0.8,0.4,1.2,0.6
		c0.3,0.3,0.6,0.6,0.9,1c0.2,0.4,0.4,0.9,0.4,1.3c0,0.5,0,0.9-0.1,1.4c-0.3,0.9-0.9,1.6-1.7,2c-0.4,0.2-0.9,0.4-1.3,0.4
		c-0.5,0-0.9,0-1.4-0.1c-0.4-0.1-0.8-0.4-1.2-0.6c-0.3-0.3-0.6-0.6-0.8-1c-0.2-0.4-0.4-0.9-0.4-1.3c-0.2-1.4,0.6-2.8,1.8-3.4
		C-53.1,331.7-52.6,331.6-52.2,331.5L-52.2,331.5z M-69.2,312.5c0.2,0.1,0.4,0.1,0.6,0.2c0.1,0,0.2,0.1,0.3,0.2l2.2,1.8
		c0.2,0.2,0.4,0.4,0.5,0.6l0,0.1c0.1,0.3,0.2,0.5,0.3,0.8c0,0.3,0,0.6-0.1,0.9c-0.1,0.3-0.2,0.5-0.4,0.7l-1.1,1.4l0.1,0.1
		c0.1,0.2,0.3,0.5,0.4,0.7c0.1,0.3,0.2,0.5,0.3,0.7l0,0.1l1.5-0.1c0.3,0,0.6,0,0.9,0.1h0c0.3,0.1,0.5,0.2,0.7,0.4l0.1,0.1
		c0.2,0.2,0.4,0.4,0.5,0.6l0,0.1c0.1,0.2,0.2,0.5,0.2,0.8c0,0.7,0.2,2.2,0.3,2.9c0,0.3,0,0.6-0.1,0.8v0c-0.1,0.3-0.2,0.5-0.4,0.8
		l0,0c-0.2,0.2-0.4,0.4-0.7,0.6c-0.3,0.1-0.5,0.2-0.8,0.3l-1.8,0.2l0,0.2c-0.1,0.2-0.1,0.5-0.2,0.7s-0.2,0.6-0.3,0.8l0,0.1l1.2,1
		c0.2,0.2,0.4,0.4,0.6,0.7c0.1,0.2,0.2,0.5,0.2,0.8v0c0,0.3,0,0.6-0.1,0.9c-0.1,0.3-0.2,0.5-0.4,0.7l-1.9,2.3
		c-0.2,0.2-0.4,0.4-0.7,0.6c-0.3,0.1-0.5,0.2-0.8,0.3c-0.3,0-0.6,0-0.9-0.1h0c-0.3-0.1-0.5-0.2-0.7-0.4l-1.4-1.2l-0.1,0.1
		c-0.2,0.1-0.5,0.3-0.7,0.4c-0.2,0.1-0.4,0.2-0.6,0.3l-0.2,0.1l0.2,1.5c0,0.3,0,0.6-0.1,0.9c-0.1,0.3-0.2,0.5-0.4,0.7l0,0
		c-0.2,0.2-0.4,0.4-0.6,0.5h-0.1c-0.2,0.1-0.5,0.2-0.8,0.2c-0.7,0-2.2,0.2-2.9,0.3c-0.3,0-0.6,0-0.9-0.1c-0.3-0.1-0.5-0.2-0.8-0.4h0
		c-0.2-0.2-0.4-0.4-0.5-0.7c-0.1-0.3-0.2-0.5-0.3-0.8l-0.2-1.7l-0.2,0l-0.7-0.2c-0.3-0.1-0.6-0.2-0.8-0.3l-0.1,0l-1,1.2
		c-0.2,0.2-0.4,0.4-0.6,0.5l-0.1,0c-0.2,0.1-0.5,0.2-0.8,0.2h0c-0.3,0-0.6,0-0.9-0.1c-0.3-0.1-0.5-0.2-0.7-0.4l-2.3-1.9
		c-0.2-0.2-0.4-0.4-0.6-0.7c-0.1-0.3-0.2-0.5-0.3-0.8c0-0.3,0-0.6,0.1-0.9c0.1-0.3,0.2-0.5,0.4-0.7l1.2-1.4l-0.1-0.1
		c-0.1-0.2-0.2-0.4-0.4-0.7l0,0c-0.1-0.3-0.3-0.5-0.4-0.7l0-0.1l-1.5,0.1c-0.3,0-0.6,0-0.9-0.1c-0.3-0.1-0.5-0.2-0.7-0.4l-0.1-0.1
		c-0.2-0.2-0.4-0.4-0.6-0.7c-0.1-0.2-0.2-0.5-0.2-0.8c0-0.7-0.2-2.2-0.3-2.9c0-0.3,0-0.6,0-0.9c0.1-0.3,0.2-0.5,0.4-0.8l0,0
		c0.2-0.2,0.4-0.4,0.7-0.6c0.3-0.1,0.5-0.2,0.8-0.2l1.7-0.2l0-0.2c0.1-0.2,0.1-0.5,0.2-0.7s0.2-0.6,0.3-0.8l0-0.1l-1.1-1
		c-0.2-0.2-0.4-0.4-0.6-0.6l0-0.1c-0.1-0.2-0.2-0.5-0.2-0.8v0c0-0.3,0-0.6,0.1-0.9c0.1-0.3,0.2-0.5,0.4-0.8l1.8-2.3
		c0.2-0.2,0.4-0.4,0.6-0.5l0.1,0c0.3-0.1,0.5-0.2,0.8-0.3c0.3,0,0.6,0,0.9,0.1c0.3,0.1,0.5,0.2,0.7,0.4l1.4,1.1l0.1-0.1
		c0.2-0.1,0.5-0.3,0.7-0.4c0.2-0.1,0.5-0.2,0.7-0.3l0.1,0l-0.1-1.5c0-0.3,0-0.6,0.1-0.9v0c0.1-0.3,0.2-0.5,0.4-0.7l0.1,0
		c0.2-0.2,0.4-0.4,0.7-0.6c0.2-0.1,0.5-0.2,0.8-0.2c0.7,0,2.2-0.2,2.9-0.3c0.3,0,0.6,0,0.9,0.1c0.3,0.1,0.5,0.2,0.8,0.4l0,0
		c0.2,0.2,0.4,0.4,0.6,0.7c0.1,0.3,0.2,0.6,0.3,0.9l0.2,1.8l0.2,0c0.2,0.1,0.5,0.1,0.7,0.2l0.8,0.3l0.1,0l1-1.2
		c0.2-0.2,0.4-0.4,0.7-0.6c0.3-0.1,0.6-0.2,0.9-0.3C-69.8,312.4-69.5,312.4-69.2,312.5L-69.2,312.5z M-78,318.9c0.4,0,0.8,0,1.3,0
		c0.4,0,0.9,0.1,1.3,0.3l0,0c0.4,0.1,0.8,0.3,1.2,0.5l0,0c0.3,0.2,0.7,0.4,1,0.7l0,0c0.6,0.5,1.2,1.2,1.6,2c0.2,0.4,0.4,0.8,0.5,1.2
		c0.1,0.4,0.2,0.9,0.2,1.3l0,0c0,0.4,0,0.8,0,1.3c0,0.4-0.1,0.9-0.3,1.3v0.1c-0.1,0.4-0.3,0.7-0.5,1.1c-0.2,0.4-0.4,0.7-0.7,1
		l-0.1,0.1c-0.5,0.6-1.2,1.2-1.9,1.5c-0.4,0.2-0.8,0.4-1.2,0.5c-0.4,0.1-0.9,0.2-1.3,0.2c-0.4,0-0.9,0-1.3,0c-0.4,0-0.9-0.1-1.3-0.3
		l0,0c-0.4-0.1-0.8-0.3-1.2-0.5c-0.4-0.2-0.7-0.4-1-0.7l0,0c-0.3-0.3-0.6-0.6-0.9-0.9c-0.3-0.3-0.5-0.7-0.7-1.1
		c-0.2-0.4-0.4-0.8-0.5-1.2c-0.1-0.4-0.2-0.9-0.2-1.3l0,0c0-0.4,0-0.8,0-1.3c0-0.4,0.1-0.9,0.3-1.3l0,0c0.1-0.4,0.3-0.8,0.5-1.2l0,0
		c0.2-0.4,0.4-0.7,0.7-1l0-0.1c0.3-0.3,0.5-0.6,0.9-0.8c0.3-0.3,0.7-0.5,1.1-0.7c0.4-0.2,0.8-0.4,1.2-0.5
		C-78.8,319-78.4,318.9-78,318.9L-78,318.9z M-76.9,320.6c-0.3,0-0.7,0-1,0l0,0c-0.3,0-0.6,0.1-1,0.2c-0.3,0.1-0.6,0.2-0.9,0.4
		c-0.3,0.2-0.6,0.3-0.8,0.6c-0.2,0.2-0.4,0.4-0.6,0.6l0,0c-0.2,0.2-0.4,0.5-0.5,0.7v0c-0.1,0.3-0.3,0.6-0.4,0.9
		c-0.1,0.3-0.2,0.6-0.2,1c0,0.3,0,0.7,0,1l0,0c0,0.3,0.1,0.6,0.2,1c0.1,0.3,0.2,0.6,0.4,0.9c0.2,0.3,0.3,0.6,0.6,0.8
		c0.2,0.2,0.4,0.5,0.7,0.7c0.2,0.2,0.5,0.4,0.8,0.5c0.3,0.1,0.6,0.3,0.9,0.4c0.3,0.1,0.6,0.2,1,0.2c0.3,0,0.7,0,1,0
		c0.3,0,0.6-0.1,1-0.2c0.3-0.1,0.6-0.2,0.8-0.4c0.3-0.2,0.6-0.3,0.8-0.6c0.2-0.2,0.4-0.4,0.6-0.6l0,0c0.2-0.2,0.4-0.5,0.6-0.8
		c0.1-0.3,0.3-0.6,0.4-0.8v0c0.1-0.3,0.2-0.6,0.2-1c0-0.3,0-0.7,0-1l0,0c0-0.3-0.1-0.6-0.2-1c-0.1-0.3-0.2-0.6-0.4-0.9
		c-0.2-0.3-0.3-0.6-0.6-0.8c-0.2-0.2-0.4-0.5-0.7-0.7c-0.2-0.2-0.5-0.3-0.7-0.5h0c-0.3-0.1-0.6-0.3-0.9-0.4
		C-76.2,320.7-76.5,320.7-76.9,320.6L-76.9,320.6z M-94.8,357.3c1.1,0,2,0.9,2,2c0,1.1-0.9,2-2,2c-1.1,0-2-0.9-2-2c0,0,0,0,0,0
		C-96.7,358.2-95.8,357.3-94.8,357.3z"/>
	<path class="st1" d="M-31.9,384h-75.8c-3.4,0-6.1-2.7-6.1-6.1v-75.8c0-3.4,2.7-6.1,6.1-6.1h75.8c3.4,0,6.1,2.7,6.1,6.1v75.8
		C-25.8,381.3-28.6,384-31.9,384z"/>
</g>
<g id="Layer_3" class="st2">
	<path class="st3" d="M23.5,59.3c19.8,0,39.5,0,59.3,0c3.9,0,7.8,0,11.7,0"/>
	<line class="st3" x1="57.2" y1="35.6" x2="57.2" y2="83.3"/>
</g>
<g id="Layer_4">
	<path class="st4" d="M78.3,45.3l-18.1-3.2c-2-0.3-4-0.3-5.9,0l-18.1,3.2c-0.3,3.7-4.6,14.1-4.6,14.1s4.3,10.3,4.6,14l18,3.2
		c2,0.3,4,0.3,6,0l18-3.2c0.3-3.7,4.6-14,4.6-14S78.5,49,78.3,45.3z M75.7,71l-15.9,2.7c-1.7,0.3-3.5,0.3-5.2,0L38.7,71
		c-0.3-3.1-4-11.8-4-11.8s3.8-8.7,4-11.8l15.9-2.7c1.7-0.3,3.5-0.3,5.2,0l15.9,2.7c0.3,3.1,4,11.8,4,11.8S75.9,67.9,75.7,71z"/>
	<path d="M75.7,47.5l-15.9-2.7c-1.7-0.3-3.5-0.3-5.2,0l-15.9,2.7c-0.3,3.1-4,11.8-4,11.8s3.8,8.7,4,11.8l15.9,2.7
		c1.7,0.3,3.5,0.3,5.2,0L75.7,71c0.3-3.1,4-11.8,4-11.8S75.9,50.6,75.7,47.5z M44,69.4c0.1-0.4,0.3-0.8,0.4-1.1
		c-0.5,0.5-1,0.9-1.6,1.1c-0.2,0.1-0.4-0.2-0.4-0.4c0.1-0.5,0.4-1.1,0.8-1.4c0.3-0.2,0.7-0.2,1,0c0,0,0.1-0.1,0.1-0.1
		c0.8-1.1,1.5-2.3,2.1-3.5c0,0,0,0,0,0c0,0,0.1,0,0.1,0c0,0,0,0,0.1,0c0.1,0,0.3,0.2,0.3,0.4c0,0,0,0,0,0C46,66,45,67.8,44.4,69.7
		C44.3,69.9,43.9,69.6,44,69.4z M49.2,68.5c-0.1,0.2-0.2,0.4-0.4,0.5c-0.1,0.1-0.2,0.2-0.3,0.3C48.2,69.4,48,69,48,68.7
		c0-0.1,0-0.2,0-0.3c-0.6,0.4-1.1,0.7-1.8,1c-0.3,0.1-0.6,0.1-0.8-0.2c-0.3-0.4,0.1-1.1,0.4-1.4c0.3-0.3,0.7-0.6,1.1-0.2
		c0.5,0.5-0.7,1-1,1.1c0,0.1-0.1,0.1-0.1,0.2c0.5-0.1,1.7-0.7,2.3-1.1c0-0.1,0.1-0.2,0.1-0.3c0.1-0.2,0.5,0.1,0.4,0.3
		c-0.1,0.2-0.1,0.4-0.2,0.6c0,0,0,0.1,0,0.2c0,0,0-0.1,0.1-0.1c0.1-0.1,0.2-0.3,0.3-0.5c0.2-0.3,0.3-0.6,0.5-0.9
		c0.1-0.2,0.5,0.1,0.5,0.3C49.6,67.8,49.5,68.2,49.2,68.5z M53.8,68.1c-0.3,0.1-0.6,0.3-0.9,0.5c0,0.1,0,0.2,0,0.4
		c-0.1,0.4-0.5,1-0.9,0.6c-0.5-0.4-0.1-0.9,0.4-1.3c0-0.1-0.1-0.1-0.2-0.2c-0.3,0.2-0.5,0.4-0.8,0.6c-0.2,0.2-0.5,0.4-0.8,0.4
		c-0.3,0.1-0.7-0.2-0.7-0.6c0-0.4,0.3-0.8,0.5-1.2c0.1-0.2,0.6,0.2,0.5,0.3c-0.2,0.3-0.3,0.5-0.4,0.8c0,0,0,0.1,0,0.1
		c0.4-0.1,1.2-0.5,1.6-0.9c-0.1-0.3-0.1-0.8,0.3-0.7c0.1,0,0.3,0.1,0.3,0.2c0,0.1,0.1,0.2-0.1,0.2c-0.3,0-0.2,0.3-0.1,0.4
		c0,0,0.1,0.1,0.1,0.1c0.4-0.2,0.9-0.3,1-0.4C53.8,67.7,54,68,53.8,68.1z M50.7,66.6c0.1-0.4,0.3-0.7,0.5-1.1
		c0.1-0.2,0.5,0.1,0.5,0.3c-0.2,0.4-0.3,0.7-0.5,1.1C51.1,67.1,50.7,66.8,50.7,66.6z M48.4,63.8c-0.3,0-0.6-0.1-0.8-0.3
		c-0.2-0.2-0.3-0.5-0.3-0.8V51.5c0-0.3,0.1-0.6,0.3-0.8c0.2-0.2,0.4-0.3,0.8-0.3H51v-4.1c0-0.2,0.1-0.3,0.3-0.3h10.5
		c0.2,0,0.3,0.1,0.3,0.3v4.1h2.6c0.3,0,0.6,0.1,0.8,0.3c0.2,0.2,0.3,0.5,0.3,0.8v11.2c0,0.2-0.1,0.4-0.2,0.6c0,0.1-0.1,0.1-0.1,0.1
		c0,0-0.1,0-0.1,0.1c-0.2,0.2-0.4,0.2-0.7,0.2H48.4z M67,67.8c-0.1,0-0.4,0.2-0.4,0.2c-0.1,0.1-0.2,0.2-0.4,0.3
		c-0.2,0.3-0.5,0.6-0.6,0.9c-0.1,0.2-0.5-0.1-0.5-0.3c0-0.1,0.1-0.2,0.1-0.3c-0.2,0.1-0.4,0.3-0.6,0.4c-0.2,0.1-0.5,0.3-0.7,0.2
		c-0.3,0-0.5-0.2-0.6-0.5c0-0.2,0-0.3,0-0.5c-0.5,0.3-0.9,0.8-1.4,1c-0.2,0.1-0.4-0.2-0.4-0.4c0-0.1,0-0.1,0-0.2
		c-0.1,0.1-0.3,0.2-0.4,0.3c-0.2,0.1-0.4,0.2-0.6,0.2c-0.2,0-0.4-0.2-0.5-0.4c0-0.1,0-0.2,0-0.3c0,0,0,0,0,0c0,0,0,0-0.1,0
		c-0.1,0-0.2,0.1-0.2,0.2c-0.2,0.1-0.3,0.2-0.5,0.4c-0.2,0.1-0.5-0.2-0.4-0.4c0-0.2,0.1-0.4,0.1-0.6c0,0,0-0.1,0.1-0.2
		c-0.1,0-0.2,0.1-0.2,0.1c-0.2,0.1-0.4,0.2-0.6,0.4c-0.4,0.2-0.7,0.5-1,0.8c-0.1,0.1-0.5-0.2-0.4-0.3c0-0.2,0.1-0.5,0.2-0.7
		c-0.2,0.1-0.4,0.2-0.5,0.3c0,0.1,0,0.2,0,0.4c-0.1,0.4-0.5,1-0.9,0.6c-0.5-0.4-0.1-0.9,0.4-1.3c-0.1-0.2-0.3-0.3-0.4-0.5
		c-0.2-0.3-0.1-0.8,0.3-0.8c0.1,0,0.3,0.1,0.3,0.2c0,0.1,0,0.2-0.1,0.2c-0.3,0-0.2,0.3-0.1,0.4c0,0,0.1,0.1,0.1,0.1
		c0.4-0.2,0.9-0.3,1-0.4c0,0,0,0,0,0c0,0,0,0,0,0c0.1-0.2,0.5,0.2,0.4,0.3c0,0.1-0.1,0.2-0.1,0.2c0.4-0.3,0.8-0.6,1.3-0.8
		c0.3-0.1,0.6,0,0.7,0.4c0,0.1,0,0.3-0.1,0.4c0.1,0,0.1-0.1,0.2-0.1c0.2-0.1,0.3-0.1,0.5-0.1c0.2,0.1,0.3,0.3,0.3,0.5
		c0,0,0,0.1,0,0.1c0.2,0,0.9-0.4,1.4-0.7c0.1-0.2,0.3-0.4,0.4-0.5c0.3-0.3,0.8-0.2,1,0.1c0,0,0.1,0,0.2,0c0.1,0,0.1,0,0.2,0.1
		c0.1,0.1,0.2,0.2,0.2,0.3c0,0,0,0.1,0,0.1c0,0.1-0.1,0.3-0.1,0.4c0,0.1-0.1,0.3-0.1,0.4c0,0,0,0,0,0c0.5-0.1,1.4-0.7,1.7-1
		c0-0.1,0.1-0.3,0.2-0.4c0.1-0.2,0.4,0,0.5,0.2c0.4-0.3,0.8-0.4,1.1,0.1c0.1,0.1,0,0.2-0.1,0.2C67.1,68,67,67.9,67,67.8z M72.2,65.9
		c-0.5-0.2-1-0.3-1.5-0.3c-0.5,0-1-0.1-1.5,0h0c-0.8,1.7-1.4,3.5-1.4,5.4c0,0.3-0.5,0-0.5-0.2c0-1.8,0.5-3.5,1.2-5.1
		c-0.8,0-1.7,0.1-2.5,0.3c-0.2,0-0.6-0.4-0.3-0.5c1-0.2,2-0.3,3.1-0.3c0.2-0.4,0.4-0.8,0.6-1.2c0.1-0.2,0.5,0.1,0.5,0.3
		c-0.1,0.3-0.3,0.6-0.4,0.9c0.9,0,2,0,2.8,0.4c0.1,0,0.2,0.2,0.2,0.3C72.4,66,72.3,66,72.2,65.9z"/>
	<polygon points="64.4,51.3 62.1,53.2 62.1,51.3 	"/>
	<g>
		<path d="M54.3,56c0,0,0.1,0,0.1,0.1h0l0.1,0.1"/>
		<polygon points="51.1,51.4 51.1,53.3 48.7,51.4 		"/>
		<polygon points="65,52 65,62.5 60.4,57.6 59.5,56.7 59.7,56.5 61.6,54.9 62.2,54.4 		"/>
		<path d="M51.7,46.8v7l2.7,2.2c0,0,0.2,0.2,0.2,0.2l1,0.8l0.4,0.4l0.8,0.7l0.7-0.6l1.7-1.4l2.5-2.1v-7H51.7z M54.7,47.7
			c0.2,0,0.3,0.1,0.3,0.3c0,0.2-0.1,0.3-0.3,0.3c-0.2,0-0.3-0.1-0.3-0.3C54.4,47.8,54.5,47.7,54.7,47.7z M52.5,48
			c0-0.2,0.1-0.3,0.3-0.3c0.2,0,0.3,0.1,0.3,0.3c0,0.2-0.1,0.3-0.3,0.3C52.6,48.3,52.5,48.1,52.5,48z M54.9,53.5
			c-0.1,0.1-0.2,0.2-0.3,0.2c-0.1,0.1-0.3,0.1-0.4,0.1v0.5h-0.3v-0.5c-0.1,0-0.2,0-0.3-0.1c-0.1,0-0.2,0-0.2-0.1
			c-0.1,0-0.1-0.1-0.2-0.2c-0.1-0.1-0.1-0.1-0.2-0.2c-0.1-0.1-0.1-0.2-0.1-0.3c0-0.1-0.1-0.2-0.1-0.3h0l0.5-0.1h0
			c0,0.1,0,0.2,0.1,0.3c0,0.1,0.1,0.2,0.1,0.2c0.1,0.1,0.1,0.1,0.2,0.2c0.1,0,0.2,0.1,0.2,0.1V52c-0.1,0-0.2-0.1-0.3-0.1
			c-0.1,0-0.2-0.1-0.3-0.1c-0.1,0-0.1-0.1-0.2-0.2s-0.1-0.1-0.2-0.2c0,0,0,0,0,0c0-0.1-0.1-0.1-0.1-0.2c0-0.1,0-0.2,0-0.3
			c0-0.1,0-0.2,0-0.3c0,0,0-0.1,0-0.1c0.1-0.1,0.1-0.3,0.3-0.4c0.1-0.1,0.2-0.1,0.3-0.2c0.1,0,0.2-0.1,0.4-0.1v-0.2h0.3v0.2
			c0.1,0,0.2,0,0.4,0.1c0.1,0,0.2,0.1,0.3,0.2c0.1,0.1,0.2,0.2,0.2,0.3c0,0.1,0.1,0.1,0.1,0.2c0,0.1,0,0.1,0,0.2v0h0l-0.5,0.1h0
			c0-0.1,0-0.2-0.1-0.2c0,0,0,0,0,0c0-0.1-0.1-0.1-0.1-0.1c0-0.1-0.1-0.1-0.1-0.1c-0.1,0-0.1-0.1-0.2-0.1v1.3c0.1,0,0.2,0.1,0.3,0.1
			c0.1,0,0.1,0.1,0.2,0.1c0.1,0,0.1,0.1,0.2,0.1c0.1,0,0.1,0.1,0.2,0.1c0,0,0.1,0.1,0.1,0.1c0,0.1,0.1,0.1,0.1,0.2
			c0,0.1,0,0.1,0,0.2c0,0.1,0,0.1,0,0.2C55.2,53,55.1,53.3,54.9,53.5z M58.6,47.7c0.2,0,0.3,0.1,0.3,0.3c0,0.2-0.1,0.3-0.3,0.3
			c-0.2,0-0.3-0.1-0.3-0.3C58.3,47.8,58.4,47.7,58.6,47.7z M56.6,47.7c0.2,0,0.3,0.1,0.3,0.3c0,0.2-0.1,0.3-0.3,0.3
			c-0.2,0-0.3-0.1-0.3-0.3C56.3,47.8,56.5,47.7,56.6,47.7z M59.3,54.3h-3c-0.1,0-0.2-0.1-0.2-0.2s0.1-0.2,0.2-0.2h3
			c0.1,0,0.2,0.1,0.2,0.2S59.4,54.3,59.3,54.3z M60.5,52.9h-4.2c-0.1,0-0.2-0.1-0.2-0.2s0.1-0.2,0.2-0.2h4.2c0.1,0,0.2,0.1,0.2,0.2
			S60.6,52.9,60.5,52.9z M60.7,51.4c0,0-0.1,0.1-0.2,0.1h-4.2c-0.1,0-0.1,0-0.2-0.1c0,0,0-0.1,0-0.1c0-0.1,0.1-0.2,0.2-0.2h4.2
			c0.1,0,0.2,0.1,0.2,0.2C60.8,51.3,60.7,51.4,60.7,51.4z M60.5,50.1h-4.2c-0.1,0-0.2-0.1-0.2-0.2c0-0.1,0.1-0.2,0.2-0.2h4.2
			c0.1,0,0.2,0.1,0.2,0.2C60.8,50,60.7,50.1,60.5,50.1z M60.5,48.3c-0.2,0-0.3-0.1-0.3-0.3c0-0.2,0.1-0.3,0.3-0.3
			c0.2,0,0.3,0.1,0.3,0.3C60.8,48.1,60.7,48.3,60.5,48.3z"/>
		<path d="M54.7,52.7c0,0.1,0,0.2,0,0.3c0,0.1-0.1,0.2-0.1,0.2c-0.1,0.1-0.1,0.1-0.2,0.2s-0.1,0.1-0.2,0.1v-1.4
			c0.1,0,0.2,0.1,0.3,0.1c0.1,0,0.1,0.1,0.2,0.1c0,0,0.1,0.1,0.1,0.2C54.7,52.6,54.7,52.6,54.7,52.7z"/>
		<path d="M53.8,50.3v1.3c-0.1,0-0.2-0.1-0.3-0.1c0,0,0,0,0,0c-0.1,0-0.1-0.1-0.1-0.1c-0.1-0.1-0.1-0.1-0.1-0.2c0-0.1,0-0.1,0-0.2
			s0-0.2,0-0.2c0,0,0,0,0-0.1c0,0,0-0.1,0.1-0.1c0-0.1,0.1-0.1,0.2-0.1C53.7,50.3,53.8,50.3,53.8,50.3z"/>
		<polygon points="53.9,56.7 52.9,57.7 48.2,62.4 48.2,52 51.1,54.3 51.7,54.8 53.6,56.4 		"/>
		<path d="M64.5,63.1H48.7l5.9-5.9l2,1.6c0.1,0.1,0.2,0.1,0.2,0.1c0.1,0,0.2,0,0.3-0.1l1.9-1.6L64.5,63.1z"/>
	</g>
</g>
</svg>
