<?xml version="1.0" encoding="UTF-8"?>
<svg id="Calque_2" data-name="Calque 2" xmlns="http://www.w3.org/2000/svg" viewBox="0 0 290.85 154.96">
  <defs>
    <style>
      .cls-1 {
        fill: #fff;
      }

      .cls-2 {
        fill: #716f91;
      }

      .cls-3 {
        fill: #56557c;
      }

      .cls-4 {
        fill: #cfcece;
      }

      .cls-5 {
        fill: #dbcc5d;
      }

      .cls-6 {
        fill: #9594af;
      }

      .cls-7 {
        fill: #af9e3a;
      }

      .cls-8 {
        fill: #75759c;
      }
    </style>
  </defs>
  <g id="Calque_1-2" data-name="Calque 1">
    <g>
      <g>
        <path class="cls-2" d="m73.07,33.62l-2.54,15.35c-.43,2.59-.83,5.19-1.18,7.79-.55,3.98-1.01,7.97-1.38,11.97-18.71,10.92-35.47,12.08-48.77,9.61C22.81,48.06,28.18,18.62,31.67.91c2.5-.59,5.1-.91,7.77-.91,18.57,0,33.62,15.05,33.62,33.62Z"/>
        <path class="cls-6" d="m68.87,148.66l-53.17-1.17c-4.6-21.01-.41-36.63,3.49-69.15,13.31,2.47,30.07,1.3,48.77-9.61-1.9,20.12-1.65,40.4.77,60.5l.14,19.42Z"/>
        <circle class="cls-1" cx="52.53" cy="23.97" r="13.09"/>
        <circle cx="52.53" cy="23.97" r="7.68"/>
        <circle class="cls-1" cx="47.75" cy="20.42" r="2.39"/>
        <path class="cls-5" d="m107.04,52.32c-18.74-.36-38.23-1.73-38.23-1.73,0,0-.36.7-.75,1.76-1.06-5.88-2.31-17.36,3.29-20.7,0,0,22.13,4.1,35.69,20.67Z"/>
        <path class="cls-5" d="m107.13,52.42c-.06,0-.12,0-.17,0,.04-.03.08-.05.12-.07.02.02.04.04.05.07Z"/>
        <path class="cls-7" d="m107.07,52.36s-.08.05-.12.07c-18.71.72-38.14,3.45-38.14,3.45,0,0-.36-1.39-.75-3.52.39-1.06.75-1.76.75-1.76,0,0,19.5,1.37,38.23,1.73.01.01.02.02.03.03Z"/>
        <path class="cls-5" d="m107.13,52.32s-.04.02-.05.03c0-.01-.02-.02-.03-.03h.08Z"/>
        <path class="cls-8" d="m15.69,147.49l-10.12.03-2.61.04C-2.15,120.72-.02,108.46,4.6,81.54l1.23-7.15c3.92,1.61,8.4,3.04,13.36,3.95-3.9,32.52-8.09,48.14-3.49,69.15Z"/>
        <path class="cls-3" d="m31.67.91c-3.49,17.72-8.86,47.15-12.49,77.44-4.96-.92-9.44-2.34-13.36-3.95v-40.77c0-9.28,3.76-17.69,9.85-23.78C20,5.52,25.51,2.36,31.67.91Z"/>
        <g>
          <path class="cls-1" d="m117.39,82.96l-22.92,68.12c-1,2.98-4.23,4.58-7.21,3.58l-29.77-10.02,4.87-9.17.81-1.53,3.09-5.82.81-1.53,3.09-5.82-17.26-5.81.55-1.62,17.53,5.9,3.09-5.81-18.55-6.24.55-1.62,18.82,6.33,3.09-5.81h0s-19.83-6.68-19.83-6.68l.55-1.62,20.1,6.76,3.09-5.81-21.12-7.11.55-1.62,21.38,7.2,3.09-5.82-22.4-7.53.55-1.62,22.67,7.63,3.09-5.81h0s-23.68-7.97-23.68-7.97l.54-1.62,23.95,8.06,3.09-5.82-24.97-8.4.55-1.62,25.24,8.49,2.7-5.09,16.74,5.63c2.98,1,4.58,4.23,3.58,7.21Z"/>
          <rect x="88.85" y="52.55" width="1.71" height="44" transform="translate(-9.56 135.79) rotate(-71.4)"/>
          <rect x="86.24" y="60.32" width="1.7" height="44" transform="translate(-18.71 138.61) rotate(-71.4)"/>
          <rect x="83.62" y="68.1" width="1.71" height="44" transform="translate(-27.86 141.42) rotate(-71.4)"/>
          <rect x="81.01" y="75.87" width="1.7" height="44" transform="translate(-37.01 144.24) rotate(-71.4)"/>
          <rect x="78.39" y="83.65" width="1.71" height="44" transform="translate(-46.16 147.05) rotate(-71.4)"/>
          <rect x="75.77" y="91.42" width="1.71" height="44" transform="translate(-55.31 149.87) rotate(-71.4)"/>
          <rect x="73.16" y="99.19" width="1.71" height="44" transform="translate(-64.46 152.68) rotate(-71.4)"/>
          <polygon points="92.52 135.17 91.97 136.79 66.25 128.13 67.06 126.61 92.52 135.17"/>
          <polygon points="89.9 142.94 89.35 144.56 62.35 135.48 63.17 133.95 89.9 142.94"/>
          <polygon points="67.06 126.61 66.25 128.13 50.27 122.76 50.81 121.14 67.06 126.61"/>
          <polygon points="63.17 133.95 62.35 135.48 47.66 130.53 48.2 128.91 63.17 133.95"/>
          <path class="cls-4" d="m69.13,66.72l-.55,1.62,24.97,8.4-3.09,5.82-23.95-8.06-.54,1.62,23.68,7.97h0s-3.09,5.82-3.09,5.82l-22.67-7.63-.55,1.62,22.4,7.53-3.09,5.82-21.38-7.2-.55,1.62,21.12,7.11-3.09,5.81-20.1-6.76-.55,1.62,19.83,6.67h0s-3.09,5.82-3.09,5.82l-18.82-6.33-.55,1.62,18.55,6.24-3.09,5.81-17.53-5.9-.55,1.62,17.26,5.81-3.09,5.82-16.25-5.47-.54,1.62,15.98,5.38-3.09,5.82-14.96-5.04-.55,1.62,14.7,4.95-4.87,9.17-14.26-4.8c-2.98-1-4.58-4.23-3.58-7.2l22.92-68.12c1-2.98,4.23-4.58,7.2-3.58l27.3,9.19-2.7,5.09-25.24-8.49Z"/>
          <polygon points="53.43 113.36 70.97 119.26 70.15 120.79 52.89 114.98 53.43 113.36"/>
          <polygon points="56.05 105.59 74.87 111.92 74.05 113.45 55.51 107.21 56.05 105.59"/>
          <polygon points="58.67 97.82 78.76 104.58 77.95 106.11 58.12 99.44 58.67 97.82"/>
          <polygon points="61.28 90.05 82.66 97.24 81.86 98.77 60.74 91.66 61.28 90.05"/>
          <polygon points="63.9 82.27 86.57 89.9 85.75 91.43 63.35 83.89 63.9 82.27"/>
          <polygon points="66.51 74.5 90.47 82.56 89.65 84.08 65.97 76.11 66.51 74.5"/>
          <polygon points="94.36 75.22 93.55 76.74 68.59 68.34 69.13 66.72 94.36 75.22"/>
        </g>
      </g>
      <g>
        <path class="cls-5" d="m143.11,48.78c0,6.93-4.8,11.5-11.86,11.5h-5.61v8.74h-8.28v-31.69h13.9c7.2,0,11.86,4.57,11.86,11.45Zm-8.42,0c0-2.72-1.58-4.26-4.26-4.26h-4.8v8.6h4.8c2.67,0,4.26-1.63,4.26-4.35Z"/>
        <path class="cls-5" d="m147.5,37.32h8.28v31.69h-8.28v-31.69Z"/>
        <path class="cls-5" d="m192.86,53.4c0,9.73-6.2,16.12-16.03,16.12s-15.94-6.75-15.94-16.34,6.61-16.34,15.94-16.34c7.7,0,13.22,3.89,15.17,10.91h-8.69c-1.31-2.13-3.12-3.12-6.16-3.12-4.66,0-7.79,3.44-7.79,8.56s3.21,8.56,8.01,8.56c3.3,0,5.79-1.67,6.88-4.21h-7.2v-6.88h15.62c.09.95.18,1.86.18,2.76Z"/>
        <path class="cls-5" d="m217.98,61.59v7.42h-20.19v-31.69h19.78v7.38h-11.54v4.71h10.64v7.24h-10.64v4.93h11.95Z"/>
        <path class="cls-5" d="m221.73,53.17c0-9.6,6.88-16.34,16.62-16.34s16.62,6.75,16.62,16.34-6.88,16.34-16.62,16.34-16.62-6.75-16.62-16.34Zm24.76,0c0-5.07-3.26-8.47-8.15-8.47s-8.15,3.35-8.15,8.47,3.26,8.47,8.15,8.47,8.15-3.4,8.15-8.47Z"/>
        <path class="cls-5" d="m287.46,37.32v31.78h-3.35l-15.98-16.16.09,5.7v10.37h-8.15v-31.83h3.35l16.03,15.66-.14-5.61v-9.91h8.15Z"/>
        <path class="cls-6" d="m154.24,89.06c0,11.94-8.15,19.86-20.31,19.86h-15.73v-39.61h15.73c12.16,0,20.31,7.92,20.31,19.75Zm-10.58,0c0-6.56-3.62-10.47-9.79-10.47h-5.32v21.05h5.32c6.17,0,9.79-3.9,9.79-10.58Z"/>
        <path class="cls-6" d="m185.87,99.64v9.28h-25.23v-39.61h24.73v9.22h-14.43v5.88h13.3v9.05h-13.3v6.17h14.94Z"/>
        <path class="cls-6" d="m228.08,69.31v.62l-17.37,39.38h-4.53l-17.54-39.38v-.62h11.09l5.04,11.77,3.68,10.69,3.51-10.69,4.98-11.77h11.15Z"/>
        <path class="cls-6" d="m232.21,69.31h10.35v39.61h-10.35v-39.61Z"/>
        <path class="cls-6" d="m249.07,96.18h10.13c0,2.72,2.15,4.3,6.11,4.3,3.68,0,5.83-1.3,5.83-3.51s-2.43-3-7.07-3.51c-10.81-1.19-14.6-6.05-14.6-12.73,0-7.13,6.28-12.05,15.5-12.05s15.5,5.21,15.5,12.96h-9.96c0-2.49-2.04-3.96-5.43-3.96s-5.32,1.3-5.32,3.39c0,1.98,1.47,3,6.05,3.45,11.49,1.13,15.79,5.66,15.79,12.73s-6.56,12.28-16.18,12.28c-10.24,0-16.35-4.98-16.35-13.35Z"/>
      </g>
    </g>
  </g>
</svg>