<?xml version="1.0" encoding="UTF-8"?>
<svg id="Calque_2" data-name="Calque 2" xmlns="http://www.w3.org/2000/svg" viewBox="0 0 456.65 652.33">
  <defs>
    <style>
      .cls-1 {
        fill: #fff;
      }

      .cls-2 {
        fill: #716f91;
      }

      .cls-3 {
        fill: #56557c;
      }

      .cls-4 {
        fill: #cfcece;
      }

      .cls-5 {
        fill: #dbcc5d;
      }

      .cls-6 {
        fill: #9594af;
      }

      .cls-7 {
        fill: #af9e3a;
      }

      .cls-8 {
        fill: #75759c;
      }
    </style>
  </defs>
  <g id="Calque_1-2" data-name="Calque 1">
    <g>
      <g>
        <path class="cls-2" d="m267.47,92.5l-7,42.22c-1.18,7.13-2.27,14.28-3.25,21.44-1.51,10.95-2.78,21.93-3.81,32.93-51.47,30.03-97.58,33.24-134.19,26.44,9.98-83.31,24.75-164.29,34.36-213.04,6.87-1.63,14.03-2.49,21.39-2.49,51.09,0,92.5,41.41,92.5,92.5Z"/>
        <path class="cls-6" d="m255.91,408.99l-146.29-3.21c-12.66-57.81-1.12-100.77,9.61-190.25,36.61,6.8,82.72,3.59,134.19-26.44-5.23,55.35-4.54,111.16,2.11,166.46l.38,53.44Z"/>
        <circle class="cls-1" cx="210.97" cy="65.96" r="36"/>
        <circle cx="210.97" cy="65.96" r="21.13"/>
        <circle class="cls-1" cx="197.8" cy="56.17" r="6.59"/>
        <path class="cls-5" d="m360.94,143.95c-51.55-.99-105.19-4.76-105.19-4.76,0,0-.99,1.92-2.06,4.85-2.92-16.17-6.36-47.76,9.05-56.95,0,0,60.88,11.29,98.2,56.86Z"/>
        <path class="cls-5" d="m361.17,144.22c-.16.01-.32.01-.48.02.11-.07.22-.13.33-.2.05.06.1.12.15.18Z"/>
        <path class="cls-7" d="m361.02,144.04c-.11.07-.22.13-.33.2-51.47,1.98-104.94,9.49-104.94,9.49,0,0-.99-3.83-2.06-9.69,1.07-2.93,2.06-4.85,2.06-4.85,0,0,53.64,3.77,105.19,4.76.03.03.06.06.08.09Z"/>
        <path class="cls-5" d="m361.17,143.95s-.1.06-.15.09c-.02-.03-.05-.06-.08-.09h.23Z"/>
        <path class="cls-8" d="m109.61,405.78l-27.84.08-7.18.11c-14.07-73.84-8.22-107.57,4.49-181.65l3.38-19.66c10.79,4.43,23.11,8.35,36.75,10.87-10.73,89.48-22.27,132.44-9.61,190.25Z"/>
        <path class="cls-3" d="m153.58,2.49c-9.61,48.75-24.38,129.73-34.36,213.04-13.64-2.52-25.96-6.44-36.75-10.87v-112.16c0-25.54,10.35-48.67,27.09-65.41,11.91-11.91,27.07-20.59,44.02-24.6Z"/>
        <g>
          <path class="cls-1" d="m389.39,228.25l-63.06,187.41c-2.76,8.2-11.64,12.6-19.83,9.84l-81.91-27.56,13.39-25.22,2.24-4.2,8.49-16,2.23-4.2,8.5-16-47.49-15.98,1.5-4.45,48.23,16.23,8.49-15.99-51.03-17.17,1.5-4.45,51.77,17.42,8.5-15.99h0s-54.57-18.37-54.57-18.37l1.5-4.46,55.3,18.61,8.5-15.99-58.1-19.55,1.5-4.45,58.83,19.8,8.49-16-61.62-20.73,1.5-4.46,62.36,20.99,8.5-15.99h0s-65.16-21.93-65.16-21.93l1.49-4.45,65.9,22.18,8.5-16-68.7-23.12,1.5-4.45,69.43,23.36,7.44-14,46.05,15.49c8.19,2.76,12.6,11.64,9.84,19.83Z"/>
          <rect x="310.89" y="144.58" width="4.7" height="121.04" transform="translate(18.95 436.56) rotate(-71.4)"/>
          <rect x="303.7" y="165.97" width="4.69" height="121.04" transform="translate(-6.23 444.31) rotate(-71.4)"/>
          <rect x="296.5" y="187.35" width="4.7" height="121.04" transform="translate(-31.4 452.05) rotate(-71.4)"/>
          <rect x="289.3" y="208.74" width="4.69" height="121.04" transform="translate(-56.57 459.8) rotate(-71.4)"/>
          <rect x="282.1" y="230.12" width="4.7" height="121.04" transform="translate(-81.74 467.54) rotate(-71.4)"/>
          <rect x="274.9" y="251.52" width="4.7" height="121.04" transform="translate(-106.92 475.29) rotate(-71.4)"/>
          <rect x="267.71" y="272.9" width="4.7" height="121.04" transform="translate(-132.08 483.03) rotate(-71.4)"/>
          <polygon points="320.97 371.88 319.47 376.33 248.71 352.52 250.94 348.32 320.97 371.88"/>
          <polygon points="313.77 393.27 312.27 397.72 237.98 372.72 240.22 368.52 313.77 393.27"/>
          <polygon points="250.94 348.32 248.71 352.52 204.75 337.73 206.24 333.28 250.94 348.32"/>
          <polygon points="240.22 368.52 237.98 372.72 197.55 359.11 199.05 354.66 240.22 368.52"/>
          <path class="cls-4" d="m256.63,183.57l-1.5,4.45,68.7,23.12-8.5,16-65.9-22.18-1.49,4.45,65.16,21.92h0s-8.5,16-8.5,16l-62.36-20.99-1.5,4.46,61.62,20.73-8.49,16-58.83-19.8-1.5,4.45,58.1,19.55-8.5,15.99-55.3-18.61-1.5,4.46,54.57,18.36h0s-8.5,16-8.5,16l-51.77-17.42-1.5,4.45,51.03,17.17-8.49,15.99-48.23-16.23-1.5,4.45,47.49,15.98-8.5,16-44.7-15.04-1.49,4.45,43.96,14.79-8.49,16-41.17-13.86-1.5,4.45,40.43,13.61-13.39,25.22-39.24-13.21c-8.19-2.76-12.6-11.63-9.84-19.82l63.07-187.42c2.75-8.19,11.63-12.59,19.82-9.84l75.1,25.28-7.44,14-69.43-23.36Z"/>
          <polygon points="213.45 311.89 261.68 328.12 259.44 332.32 211.95 316.34 213.45 311.89"/>
          <polygon points="220.64 290.51 272.41 307.93 270.17 312.13 219.15 294.96 220.64 290.51"/>
          <polygon points="227.84 269.11 283.14 287.72 280.91 291.93 226.34 273.57 227.84 269.11"/>
          <polygon points="235.04 247.73 293.87 267.53 291.64 271.73 233.54 252.18 235.04 247.73"/>
          <polygon points="242.24 226.34 304.6 247.33 302.36 251.53 240.74 230.8 242.24 226.34"/>
          <polygon points="249.43 204.96 315.33 227.14 313.1 231.33 247.94 209.41 249.43 204.96"/>
          <polygon points="326.06 206.93 323.83 211.14 255.13 188.02 256.63 183.57 326.06 206.93"/>
        </g>
      </g>
      <g>
        <path class="cls-5" d="m75.25,457.07c0,17.88-12.39,29.68-30.62,29.68h-14.49v22.55H8.76v-81.8h35.87c18.58,0,30.62,11.8,30.62,29.56Zm-21.73,0c0-7.01-4.09-10.98-10.98-10.98h-12.39v22.2h12.39c6.89,0,10.98-4.21,10.98-11.22Z"/>
        <path class="cls-5" d="m86.59,427.51h21.38v81.8h-21.38v-81.8Z"/>
        <path class="cls-5" d="m203.67,468.99c0,25.12-16.01,41.6-41.37,41.6s-41.13-17.41-41.13-42.18,17.06-42.18,41.13-42.18c19.86,0,34.12,10.05,39.15,28.16h-22.44c-3.39-5.49-8.06-8.06-15.89-8.06-12.04,0-20.1,8.88-20.1,22.08s8.3,22.08,20.68,22.08c8.53,0,14.96-4.32,17.76-10.87h-18.58v-17.76h40.31c.23,2.45.47,4.79.47,7.13Z"/>
        <path class="cls-5" d="m268.52,490.14v19.16h-52.12v-81.8h51.06v19.05h-29.8v12.15h27.46v18.7h-27.46v12.74h30.85Z"/>
        <path class="cls-5" d="m278.22,468.41c0-24.77,17.76-42.18,42.88-42.18s42.88,17.41,42.88,42.18-17.76,42.18-42.88,42.18-42.88-17.41-42.88-42.18Zm63.92,0c0-13.09-8.41-21.85-21.03-21.85s-21.03,8.65-21.03,21.85,8.41,21.85,21.03,21.85,21.03-8.76,21.03-21.85Z"/>
        <path class="cls-5" d="m447.89,427.51v82.03h-8.65l-41.25-41.72.23,14.72v26.76h-21.03v-82.15h8.65l41.37,40.43-.35-14.49v-25.59h21.03Z"/>
        <path class="cls-6" d="m104,561.03c0,30.82-21.03,51.27-52.44,51.27H10.96v-102.25h40.61c31.41,0,52.44,20.45,52.44,50.98Zm-27.32,0c0-16.94-9.35-27.02-25.27-27.02h-13.73v54.34h13.73c15.92,0,25.27-10.08,25.27-27.32Z"/>
        <path class="cls-6" d="m185.65,588.35v23.96h-65.15v-102.25h63.83v23.81h-37.25v15.19h34.33v23.37h-34.33v15.92h38.56Z"/>
        <path class="cls-6" d="m294.62,510.05v1.61l-44.84,101.67h-11.69l-45.28-101.67v-1.61h28.63l13,30.38,9.49,27.61,9.06-27.61,12.85-30.38h28.78Z"/>
        <path class="cls-6" d="m305.27,510.05h26.73v102.25h-26.73v-102.25Z"/>
        <path class="cls-6" d="m348.8,579.44h26.15c0,7.01,5.55,11.1,15.78,11.1,9.49,0,15.05-3.36,15.05-9.06s-6.28-7.74-18.26-9.06c-27.9-3.07-37.69-15.63-37.69-32.87,0-18.41,16.21-31.11,40.02-31.11s40.02,13.44,40.02,33.45h-25.71c0-6.43-5.26-10.22-14.02-10.22s-13.73,3.36-13.73,8.76c0,5.11,3.8,7.74,15.63,8.91,29.65,2.92,40.75,14.61,40.75,32.87s-16.94,31.7-41.78,31.7c-26.44,0-42.21-12.85-42.21-34.47Z"/>
      </g>
    </g>
  </g>
</svg>